<svg xmlns="http://www.w3.org/2000/svg" viewBox="0 0 64 63.98"><defs><style>.cls-1{fill:#415364;}.cls-2{fill:#fff;}.cls-3{fill:#ff9e18;}</style></defs><title>TL_Alerted_Notification_Icon_64x64px</title><g id="Layer_2" data-name="Layer 2"><g id="Livello_1" data-name="Livello 1"><rect class="cls-1" width="64" height="63.98" rx="12" ry="12"/><path class="cls-2" d="M48.21,22.83V41.16a.44.44,0,0,1-.22.38L32.26,50.61a.43.43,0,0,1-.44,0L16,41.45a.44.44,0,0,1-.22-.38V25a.45.45,0,0,0-.22-.38l-4.34-2.5a.44.44,0,0,0-.66.38V42.85a2.65,2.65,0,0,0,1.32,2.3L30.72,56a2.65,2.65,0,0,0,2.64,0L52.11,45.19a2.63,2.63,0,0,0,1.32-2.29V21.09a2.63,2.63,0,0,0-1.32-2.29L33.36,8a2.6,2.6,0,0,0-2.64,0L22,13a.45.45,0,0,0,0,.77l4.35,2.5a.43.43,0,0,0,.44,0l5-2.88a.43.43,0,0,1,.44,0L48,22.45A.44.44,0,0,1,48.21,22.83Z"/><circle class="cls-3" cx="40.9" cy="32.07" r="2.98"/><circle class="cls-3" cx="31.41" cy="32.07" r="2.98"/></g></g></svg>